[IMG]http://img714.imageshack.us/img714/7392/sdrbenner5.jpg[/IMG]


[IMG]http://moviesoftheday.com/upload/covers/183381/species-iii-cover-3.jpg[/IMG]

[IMG]http://myph.us/pics/64623_8we5inyn.png[/IMG]
General
Complete name                    : Species 3 (2004)DvDrip{Dual audio}[Eng Hindi]Current_HD
Format                           : AVI
Format/Info                      : Audio Video Interleave
Format profile                   : OpenDML
File size                        : 795 MiB
Duration                         : 1h 47mn
Overall bit rate                 : 1 036 Kbps
Writing application              : AVI-Mux GUI 1.17.8.3, Feb 16 201019:42:50

Video
ID                               : 0
Format                           : MPEG-4 Visual
Format profile                   : Advanced Simple@L5
Format settings, BVOP            : Yes
Format settings, QPel            : No
Format settings, GMC             : No warppoints
Format settings, Matrix          : Default (H.263)
Muxing mode                      : Packed bitstream
Codec ID                         : XVID
Codec ID/Hint                    : XviD
Duration                         : 1h 47mn
Bit rate                         : 770 Kbps
Width                            : 544 pixels
Height                           : 304 pixels
Display aspect ratio             : 16:9
Frame rate                       : 25.000 fps
Color space                      : YUV
Chroma subsampling               : 4:2:0
Bit depth                        : 8 bits
Scan type                        : Progressive
Bits/(Pixel*Frame)               : 0.186
Stream size                      : 591 MiB (74%)
Writing library                  : XviD 1.0.3 (UTC 2004-12-20)

Audio #1
ID                               : 1
Format                           : MPEG Audio
Format version                   : Version 1
Format profile                   : Layer 3
Mode                             : Joint stereo
Codec ID                         : 55
Codec ID/Hint                    : MP3
Duration                         : 1h 47mn
Bit rate mode                    : Variable
Bit rate                         : 128 Kbps
Channel(s)                       : 2 channels
Sampling rate                    : 48.0 KHz
Stream size                      : 98.8 MiB (12%)
Alignment                        : Aligned on interleaves
Interleave, duration             : 24 ms (0.60 video frame)
Interleave, preload duration     : 65 ms
Writing library                  : LAME3.90.
Encoding settings                : -m j -V 4 -q 2 -lowpass 17.6 --abr 128

Audio #2
ID                               : 2
Format                           : MPEG Audio
Format version                   : Version 1
Format profile                   : Layer 3
Mode                             : Joint stereo
Mode extension                   : MS Stereo
Codec ID                         : 55
Codec ID/Hint                    : MP3
Duration                         : 1h 47mn
Bit rate mode                    : Constant
Bit rate                         : 128 Kbps
Channel(s)                       : 2 channels
Sampling rate                    : 48.0 KHz
Stream size                      : 98.2 MiB (12%)
Alignment                        : Aligned on interleaves
Interleave, duration             : 798 ms (19.95 video frames)
Interleave, preload duration     : 216 ms
Title                            : CurrentHD
Writing library                  : LAME3.97

[IMG]http://img99.imageshack.us/img99/2379/67869504.jpg[/IMG]
[[IMG]http://img408.imageshack.us/img408/7106/37427609.jpg[/IMG]
[IMG]http://img823.imageshack.us/img823/3959/13270496.jpg[/IMG]
[IMG]http://img705.imageshack.us/img705/6738/29635611.jpg[/IMG]
[IMG]http://img5.imageshack.us/img5/2258/30898512.jpg[/IMG]




